<svg width="708" height="502" viewBox="0 0 708 502" fill="none" xmlns="http://www.w3.org/2000/svg">
<g clip-path="url(#clip0_3_600)">
<path d="M90.9585 134.477C99.4113 132.735 104.868 124.439 103.124 115.981C101.38 107.523 93.0869 102.061 84.634 103.804C76.1812 105.547 70.7249 113.843 72.4688 122.301C74.2127 130.759 82.5056 136.22 90.9585 134.477ZM84.938 105.278C92.5841 103.702 100.073 108.634 101.651 116.284C103.228 123.935 98.3007 131.427 90.6545 133.003C83.0084 134.58 75.5194 129.648 73.942 121.998C72.3645 114.347 77.3093 106.851 84.938 105.278Z" fill="#FFF700"/>
<path d="M572.01 228.818C580.463 227.075 585.919 218.779 584.175 210.321C582.431 201.863 574.139 196.402 565.686 198.145C557.233 199.888 551.777 208.184 553.521 216.642C555.261 225.082 563.557 230.561 572.01 228.818ZM565.986 199.601C573.632 198.025 581.121 202.956 582.699 210.607C584.276 218.258 579.349 225.75 571.703 227.326C564.056 228.903 556.568 223.971 554.99 216.32C553.416 208.687 558.357 201.174 565.986 199.601Z" fill="#FFF700"/>
<path d="M365.372 413.035C373.824 411.292 379.281 402.996 377.537 394.538C375.793 386.08 367.5 380.619 359.047 382.362C350.594 384.104 345.138 392.401 346.882 400.858C348.626 409.316 356.919 414.778 365.372 413.035ZM359.347 383.818C366.994 382.241 374.482 387.173 376.06 394.824C377.637 402.475 372.71 409.967 365.064 411.543C357.418 413.12 349.929 408.188 348.351 400.537C346.778 392.904 351.701 385.395 359.347 383.818Z" fill="#FFF700"/>
<path d="M629.089 147.863C637.542 146.12 642.998 137.824 641.254 129.366C639.51 120.908 631.217 115.447 622.764 117.19C614.312 118.933 608.855 127.229 610.599 135.687C612.343 144.144 620.618 149.609 629.089 147.863ZM623.065 118.646C630.711 117.07 638.2 122.001 639.777 129.652C641.355 137.303 636.427 144.795 628.781 146.371C621.135 147.948 613.646 143.016 612.069 135.365C610.495 127.732 615.419 120.223 623.065 118.646Z" fill="#FFF700"/>
<path d="M182.787 224.628C191.239 222.885 196.696 214.589 194.952 206.131C193.208 197.673 184.915 192.212 176.462 193.955C168.009 195.698 162.553 203.994 164.297 212.452C166.041 220.91 174.334 226.371 182.787 224.628ZM176.762 195.411C184.409 193.835 191.898 198.767 193.475 206.417C195.052 214.068 190.125 221.56 182.479 223.137C174.833 224.713 167.344 219.781 165.766 212.131C164.189 204.48 169.134 196.984 176.762 195.411Z" fill="#FFF700"/>
<path d="M370.128 112.369C378.581 110.626 384.037 102.33 382.293 93.8721C380.549 85.4142 372.256 79.953 363.803 81.6959C355.351 83.4388 349.894 91.7348 351.638 100.193C353.382 108.651 361.675 114.112 370.128 112.369ZM364.107 83.1699C371.754 81.5933 379.242 86.5251 380.82 94.1758C382.397 101.827 377.47 109.318 369.824 110.895C362.178 112.472 354.689 107.54 353.111 99.889C351.534 92.2383 356.461 84.7464 364.107 83.1699Z" fill="#FFF700"/>
<path d="M568.601 101.887C566.189 102.384 563.831 100.831 563.333 98.4179C562.835 96.0048 564.387 93.6454 566.799 93.1482C569.21 92.6509 571.569 94.204 572.066 96.6171C572.564 99.0303 571.012 101.39 568.601 101.887Z" fill="#E9DEFF"/>
<path d="M152.839 79.3871C150.428 79.8843 148.069 78.3312 147.572 75.9181C147.074 73.505 148.626 71.1456 151.038 70.6484C153.449 70.1511 155.808 71.7042 156.305 74.1174C156.803 76.5305 155.251 78.8898 152.839 79.3871Z" fill="#E9DEFF"/>
<path d="M410.12 388.167C407.708 388.665 405.35 387.111 404.852 384.698C404.354 382.285 405.906 379.926 408.318 379.429C410.729 378.931 413.088 380.484 413.585 382.898C414.083 385.311 412.531 387.67 410.12 388.167Z" fill="#E9DEFF"/>
<path d="M570.318 294.383C567.906 294.881 565.548 293.328 565.05 290.914C564.553 288.501 566.104 286.142 568.516 285.645C570.928 285.147 573.286 286.701 573.784 289.114C574.281 291.527 572.73 293.886 570.318 294.383Z" fill="#E9DEFF"/>
<path d="M118.129 304.384C115.718 304.881 113.359 303.328 112.862 300.915C112.364 298.501 113.916 296.142 116.328 295.645C118.739 295.148 121.098 296.701 121.595 299.114C122.093 301.527 120.541 303.886 118.129 304.384Z" fill="#E9DEFF"/>
<path d="M26.6802 152.762C24.2685 153.259 21.9101 151.706 21.4126 149.293C20.915 146.88 22.4667 144.52 24.8784 144.023C27.2901 143.526 29.6485 145.079 30.146 147.492C30.6436 149.905 29.0919 152.264 26.6802 152.762Z" fill="#E9DEFF"/>
<path d="M39.0982 257.145C36.6865 257.643 34.3281 256.089 33.8306 253.676C33.333 251.263 34.8847 248.904 37.2964 248.407C39.708 247.909 42.0664 249.462 42.564 251.876C43.0615 254.289 41.5099 256.648 39.0982 257.145Z" fill="#FFF700"/>
<path d="M529.243 377.673C526.831 378.17 524.473 376.617 523.975 374.204C523.477 371.791 525.029 369.432 527.441 368.934C529.853 368.437 532.211 369.99 532.709 372.403C533.206 374.817 531.654 377.176 529.243 377.673Z" fill="#FFF700"/>
<path d="M521.605 166.659C519.193 167.156 516.834 165.603 516.337 163.19C515.839 160.777 517.391 158.417 519.803 157.92C522.214 157.423 524.573 158.976 525.07 161.389C525.568 163.802 524.016 166.161 521.605 166.659Z" fill="#FFF700"/>
<path d="M688.589 278.961C686.178 279.458 683.819 277.905 683.322 275.492C682.824 273.079 684.376 270.72 686.788 270.222C689.199 269.725 691.558 271.278 692.055 273.691C692.553 276.104 691.001 278.464 688.589 278.961Z" fill="#FFF700"/>
<path d="M268.99 190.847C266.578 191.344 264.22 189.791 263.722 187.378C263.225 184.965 264.776 182.606 267.188 182.109C269.6 181.611 271.958 183.164 272.456 185.578C272.953 187.991 271.401 190.35 268.99 190.847Z" fill="#FFF700"/>
<path d="M321.661 40.2792C319.249 40.7764 316.891 39.2233 316.393 36.8102C315.895 34.3971 317.447 32.0378 319.859 31.5405C322.271 31.0433 324.629 32.5964 325.126 35.0095C325.624 37.4226 324.072 39.7819 321.661 40.2792Z" fill="#FFF700"/>
<path d="M438.813 96.3046C438.813 96.3046 429.114 89.4321 418.601 94.3072C401.781 102.111 368.144 149.566 368.144 149.566L339.431 99.5086L308.954 113.787L337.309 218.324L365.296 232.493L438.813 96.3046Z" fill="#FFF700"/>
<path d="M205.615 134.509L287.351 135.986C288.928 136.008 290.131 134.571 289.808 133.01L276.607 69.6918C276.01 66.7965 273.476 64.703 270.522 64.6535L188.787 63.1762C187.21 63.1538 186.007 64.5909 186.329 66.1526L199.53 129.47C200.145 132.362 202.662 134.459 205.615 134.509Z" fill="#CB8E00"/>
<path d="M202.166 134.451L283.902 135.929C285.479 135.951 286.682 134.514 286.36 132.952L273.158 69.6346C272.561 66.7392 270.027 64.6458 267.073 64.5962L185.338 63.1189C183.761 63.0965 182.558 64.5336 182.88 66.0953L196.082 129.413C196.679 132.308 199.213 134.402 202.166 134.451Z" fill="#FFF700"/>
<path d="M157.838 364.852L134.845 381.465L126.056 390.266L103.215 364.26L112.671 354.17L132.856 337.678L157.838 364.852Z" fill="#F7A6CC"/>
<path d="M120.037 396.19L69.6347 341.494C74.7047 338.418 81.4757 334.991 97.7437 347.387L116.211 351.3C116.211 351.3 111.876 359.182 119.605 367.137C130.323 378.154 142.658 376.086 142.658 376.086L120.037 396.19Z" fill="#FFF700"/>
<path d="M480.749 257.129L457.877 269.455C452.435 289.438 409.272 295.301 389.299 289.852C389.299 289.852 322.727 274.839 296.07 268.628C239.082 332.642 166.252 374.002 166.252 374.002L132.856 337.678L242.937 222.946C242.937 222.946 268.706 193.906 312.173 205.743L480.749 257.129Z" fill="#47D5B8"/>
<path d="M236.209 446.838L217.988 468.595L211.615 479.276L183.114 459.688L189.794 447.572L205.33 426.624L236.209 446.838Z" fill="#F7A6CC"/>
<path d="M207.238 486.508L144.977 445.855C149.152 441.628 154.87 436.644 173.672 444.658L192.533 443.916C192.533 443.916 190.25 452.619 199.715 458.442C212.803 466.5 224.249 461.451 224.249 461.451L207.238 486.508Z" fill="#FFF700"/>
<path d="M482.42 257.169L480.342 280.519C479.969 301.231 462.893 317.722 442.192 317.344C442.192 317.344 369.298 315.032 341.94 315.532C323.963 388.48 246.606 453.639 246.606 453.639L205.33 426.624L283.926 288.382C283.926 288.382 301.792 253.91 346.826 254.723L381.287 255.337L482.42 257.169Z" fill="#47D5B8"/>
<path d="M354.339 234.679C354.339 234.679 373.881 258.255 411.458 266.441C449.456 274.722 482.421 257.169 482.421 257.169L483.163 215.636L484.071 144.049C487.704 118.841 470.231 95.4609 445.037 91.82L434.935 90.3539C415.657 88.2737 402.31 117.002 396.702 137.952L354.339 234.679Z" fill="#FFF700"/>
<path d="M451.277 72.1665C450.989 78.3909 453.343 90.8755 457.247 95.3574C455.678 102.285 441.308 111.157 429.334 115.418C426.535 105.568 428.575 95.5983 429.847 92.7202C429.847 92.7202 436.188 80.3816 435.256 72.049L451.277 72.1665Z" fill="#EF92C1"/>
<path d="M420.37 50.7512L421.049 75.765C421.049 75.765 421.974 84.1539 431.991 84.4118C440.649 84.6389 449.281 83.4993 450.49 76.6827C451.516 70.9282 450.898 65.714 450.898 65.714C455.313 65.9377 461.369 61.5243 457.508 54.948C454.173 49.2331 450.252 56.0234 450.252 56.0234L449.506 45.3108C445.677 41.0148 423.882 33.9106 420.37 50.7512Z" fill="#F7A6CC"/>
<path d="M449.611 49.8078C449.611 49.8078 446.59 51.382 443.275 45.059C437.763 54.0617 413.538 61.9471 400.682 45.2616C409.599 39.6544 408.942 26.271 424.098 22.0118C434.139 19.1915 441.522 23.5231 441.522 23.5231C441.522 23.5231 446.329 20.5014 453.206 24.7726C459.287 28.5496 461.532 43.7826 454.597 52.6214C452.628 55.1311 452.26 58.1339 450.263 59.4422L449.611 49.8078Z" fill="#B55100"/>
<path d="M451.755 63.4883C451.93 63.4521 452.109 63.3422 452.22 63.1729L456.106 57.6337C456.346 57.2914 456.266 56.814 455.924 56.5736C455.582 56.3331 455.105 56.4132 454.864 56.7554L450.979 62.2946C450.738 62.6369 450.819 63.1143 451.161 63.3547C451.334 63.4837 451.562 63.5281 451.755 63.4883Z" fill="#DD4B9B"/>
<path d="M441.229 84.7023C448.945 83.1112 450.854 78.1809 450.947 77.9239C451.085 77.5295 450.886 77.095 450.492 76.9567C450.097 76.8185 449.663 77.0178 449.525 77.4121C449.421 77.7079 446.775 84.2904 434.448 83.649C434.023 83.6269 433.67 83.9557 433.645 84.3635C433.623 84.7887 433.951 85.1417 434.359 85.1674C437.053 85.2888 439.317 85.0964 441.229 84.7023Z" fill="#DD4B9B"/>
<path d="M431.714 88.5666L429.334 115.418L417.981 117.284L423.019 90.2863L431.714 88.5666Z" fill="#47D5B8"/>
<path d="M429.334 115.418L456.309 94.0874L465.623 98.7345L433.376 125.177L429.334 115.418Z" fill="#47D5B8"/>
<path d="M233.808 104.896C230.602 105.557 227.467 103.492 226.805 100.284C226.144 97.0766 228.207 93.9403 231.413 93.2793C234.618 92.6183 237.753 94.6829 238.415 97.8907C239.076 101.098 237.014 104.235 233.808 104.896Z" fill="white"/>
<g opacity="0.46">
<path d="M232.573 63.9716L247.182 135.268L232.592 135.001L218.039 63.712L232.573 63.9716Z" fill="white"/>
</g>
<g opacity="0.46">
<path d="M212.497 63.6107L227.106 134.907L222.259 134.809L207.706 63.5192L212.497 63.6107Z" fill="white"/>
</g>
<path d="M323.1 147.457C323.1 147.457 306.339 138.876 302.076 133.096C291.269 118.458 288.402 101.45 283.959 101.36C283.846 107.549 282.403 109.419 278.237 109.784C275.362 110.03 272.062 109.1 266.602 99.9084C262.267 92.6252 259.038 92.4859 257.041 95.4771C254.883 98.6661 256.214 101.666 256.214 101.666C256.214 101.666 251.811 99.9946 252.572 107.411C252.572 107.411 248.62 108.903 250.89 115.478C253.16 122.053 252.11 122.196 270.407 142.48C288.703 162.763 303.764 175.335 304.205 174.458C304.66 173.559 323.1 147.457 323.1 147.457Z" fill="#F7A6CC"/>
<path d="M471.587 115.158C485.713 127.008 496.209 147.857 449.907 211.736C424.483 246.797 401.874 246.117 377.882 234.746L286.104 169.574L302.054 133.082L399.968 188.995C427.807 157.845 445.576 93.3734 471.587 115.158Z" fill="#FFF700"/>
<path d="M339.409 99.4946L328.407 80.8903L313.618 69.7256L292.912 67.9032C292.912 67.9032 291.266 69.9437 302.218 75.9727C298.969 78.2158 297.493 79.3066 298.316 84.0945C293.844 86.1691 295.756 92.7813 299.154 95.5198C304.222 99.6154 312.883 111.916 312.883 111.916L339.409 99.4946Z" fill="#F7A6CC"/>
<path d="M305.2 267.422C305.34 267.393 305.46 267.35 305.571 267.272C305.746 267.145 323.392 255.366 334.863 255.58L356.02 255.955C356.607 255.963 357.095 255.496 357.102 254.909C357.109 254.322 356.643 253.833 356.056 253.826L334.899 253.45C322.768 253.226 305.14 265.001 304.384 265.505C303.902 265.824 303.765 266.492 304.102 266.971C304.343 267.342 304.779 267.509 305.2 267.422Z" fill="#0CAF88"/>
<path d="M335.46 62.8785L337.062 67.7837L293.861 81.8911L292.26 76.9859L335.46 62.8785Z" fill="#47D5B8"/>
<path d="M288.631 81.8109L293.871 81.8646L292.275 76.9617L288.076 80.0959C287.349 80.6482 287.735 81.8126 288.631 81.8109Z" fill="#47D5B8"/>
<path d="M335.479 62.8764L337.075 67.7793L341.134 66.4486C342.112 66.1372 342.66 65.0728 342.328 64.0804L341.888 62.7442C341.576 61.7657 340.512 61.2167 339.52 61.5493L335.479 62.8764Z" fill="#47D5B8"/>
<path d="M335.466 62.8804L337.067 67.7856L334.633 68.5805L333.032 63.6753L335.466 62.8804Z" fill="#FFF700"/>
<path d="M294.705 76.1835L296.306 81.0887L293.872 81.8836L292.271 76.9783L294.705 76.1835Z" fill="#FFF700"/>
<path d="M379.774 177.682C380.002 177.635 380.208 177.483 380.305 177.243L413.365 103.052C413.542 102.668 413.357 102.212 412.976 102.053C412.593 101.876 412.137 102.061 411.978 102.441L378.921 176.651C378.745 177.035 378.93 177.49 379.31 177.65C379.469 177.709 379.616 177.715 379.774 177.682Z" fill="#CB8E00"/>
<path d="M400.145 189.763C400.338 189.723 400.531 189.592 400.638 189.405L429.525 141.612C429.744 141.256 429.629 140.786 429.273 140.566C428.917 140.347 428.447 140.462 428.228 140.818L399.724 187.984L314.535 139.345C314.165 139.147 313.713 139.258 313.497 139.632C313.299 140.002 313.411 140.455 313.784 140.67L399.615 189.671C399.78 189.765 399.97 189.799 400.145 189.763Z" fill="#CB8E00"/>
<path d="M295.429 176.853C295.675 176.802 295.895 176.629 295.988 176.372L310.356 137.7C310.494 137.306 310.295 136.871 309.918 136.729C309.524 136.591 309.09 136.79 308.948 137.167L294.58 175.839C294.442 176.233 294.641 176.668 295.018 176.809C295.159 176.872 295.306 176.878 295.429 176.853Z" fill="white"/>
<path d="M404.302 198.748C404.354 198.737 404.407 198.726 404.473 198.694C404.859 198.524 405.021 198.069 404.85 197.684L400.694 188.699C400.523 188.313 400.069 188.151 399.684 188.322C399.298 188.493 399.136 188.947 399.307 189.332L403.463 198.317C403.623 198.65 403.968 198.817 404.302 198.748Z" fill="#CB8E00"/>
<path d="M368.144 158.695C368.477 158.626 368.745 158.333 368.743 157.968L368.896 149.576C368.901 149.154 368.572 148.801 368.15 148.797C367.729 148.792 367.376 149.121 367.372 149.543L367.219 157.935C367.214 158.356 367.543 158.709 367.965 158.714C368.038 158.717 368.091 158.706 368.144 158.695Z" fill="#CB8E00"/>
<path d="M414.039 242.163C417.844 241.379 421.485 240.061 424.965 238.228C435.25 232.778 440.23 224.744 440.435 224.409L477.777 166.64C477.996 166.284 477.899 165.81 477.56 165.587C477.204 165.368 476.731 165.466 476.508 165.804L439.148 223.577C439.096 223.679 434.122 231.656 424.177 236.89C411.067 243.801 395.199 242.828 378.275 234.079L360.326 221.334C359.984 221.094 359.507 221.174 359.267 221.516C359.027 221.858 359.107 222.336 359.449 222.576L377.44 235.349C377.461 235.363 377.503 235.391 377.524 235.405C387.226 240.429 396.566 242.986 405.272 243.002C408.278 243.04 411.198 242.749 414.039 242.163Z" fill="#CB8E00"/>
<path d="M452.874 254.499C471.042 250.752 482.916 243.877 483.045 243.796C483.402 243.576 483.526 243.111 483.306 242.754C483.086 242.397 482.622 242.273 482.261 242.475C482.097 242.564 466.156 251.796 442.908 254.578C421.494 257.127 389.296 254.546 357.591 227.752C357.28 227.487 356.793 227.514 356.514 227.846C356.249 228.157 356.276 228.645 356.608 228.924C370.798 240.908 386.268 249.17 402.613 253.428C415.677 256.845 429.319 257.745 443.145 256.084C446.553 255.674 449.805 255.131 452.874 254.499Z" fill="white"/>
<path d="M311.588 123.726C311.606 123.722 311.623 123.719 311.658 123.711L347.135 113.287C347.531 113.168 347.774 112.752 347.652 112.338C347.534 111.942 347.1 111.702 346.704 111.82L311.228 122.245C310.832 122.363 310.589 122.779 310.711 123.193C310.825 123.572 311.202 123.805 311.588 123.726Z" fill="white"/>
<path d="M228.477 442.413C228.688 442.37 228.88 442.239 228.984 442.034L293.272 326.792C293.286 326.771 293.3 326.75 293.296 326.733C302.721 305.233 313.879 296.128 321.589 292.288C329.841 288.153 335.89 289.028 335.947 289.035C335.968 289.049 336.003 289.041 336.02 289.038L421.456 292.679C421.491 292.672 421.53 292.682 421.565 292.675C424.633 292.39 427.101 291.058 428.902 288.711C434.086 281.934 431.908 269.066 431.814 268.518C431.748 268.111 431.343 267.829 430.936 267.894C430.529 267.96 430.247 268.366 430.312 268.773C430.338 268.896 432.451 281.54 427.688 287.79C426.176 289.767 424.09 290.91 421.472 291.158L336.131 287.533C335.491 287.446 329.292 286.73 320.907 290.928C312.983 294.885 301.542 304.214 291.923 326.101L227.649 441.322C227.451 441.692 227.58 442.141 227.936 442.36C228.116 442.433 228.302 442.449 228.477 442.413Z" fill="white"/>
<path d="M146.805 352.218C146.945 352.189 147.078 352.125 147.183 352.012L258.142 244.727C258.173 244.702 258.205 244.677 258.215 244.639C265.462 235.095 275.912 231.514 283.391 230.191C291.523 228.752 297.986 229.596 298.064 229.617L354.273 235.424C354.685 235.468 355.062 235.17 355.102 234.741C355.145 234.33 354.847 233.952 354.419 233.913L298.226 228.102C297.98 228.061 291.482 227.224 283.119 228.692C275.39 230.048 264.583 233.758 257.047 243.672L146.116 350.914C145.812 351.215 145.801 351.693 146.098 351.979C146.289 352.196 146.56 352.268 146.805 352.218Z" fill="white"/>
<path d="M296.283 269.663C296.827 269.551 297.182 269.057 297.123 268.502L295.34 253.649C295.273 253.059 294.751 252.655 294.161 252.721C293.572 252.788 293.168 253.311 293.234 253.9L295.017 268.753C295.084 269.343 295.606 269.748 296.195 269.681C296.231 269.674 296.266 269.666 296.283 269.663Z" fill="#0CAF88"/>
<path d="M342.154 316.567C342.312 316.535 342.445 316.471 342.571 316.372C343.046 316.017 343.126 315.342 342.776 314.884L336.496 306.593C336.142 306.117 335.467 306.037 335.009 306.387C334.534 306.742 334.454 307.417 334.804 307.875L341.084 316.166C341.353 316.495 341.768 316.647 342.154 316.567Z" fill="#0CAF88"/>
<path d="M443.492 46.1119C443.825 46.0432 444.126 45.8165 444.271 45.4573C444.461 44.9608 449.029 33.1526 444.782 26.5645C444.459 26.0639 443.809 25.9237 443.308 26.2463C442.808 26.569 442.668 27.2199 442.991 27.7204C446.632 33.409 442.334 44.5761 442.286 44.6958C442.068 45.2347 442.342 45.855 442.881 46.0733C443.078 46.1424 443.299 46.1516 443.492 46.1119Z" fill="#542502"/>
<path d="M263.749 114.089C263.836 114.071 263.92 114.035 264.001 113.982C264.358 113.762 264.46 113.284 264.24 112.927L256.84 101.244C256.62 100.887 256.142 100.785 255.785 101.005C255.428 101.224 255.326 101.703 255.546 102.06L262.946 113.742C263.134 114.033 263.45 114.15 263.749 114.089Z" fill="#DD4B9B"/>
<path d="M259.875 118.802C259.963 118.784 260.065 118.745 260.145 118.692C260.498 118.454 260.583 117.979 260.349 117.644L253.202 107.007C252.964 106.653 252.49 106.568 252.154 106.802C251.801 107.04 251.716 107.515 251.95 107.851L259.097 118.487C259.26 118.746 259.577 118.864 259.875 118.802Z" fill="#DD4B9B"/>
<path d="M306.652 96.0594C306.933 96.0015 307.189 95.9122 307.385 95.7986C308.855 95.0381 309.343 93.2362 309.353 92.6669C309.368 92.2065 309.371 91.6022 298.78 83.505C298.452 83.2434 297.971 83.3059 297.713 83.6518C297.452 83.9801 297.514 84.4611 297.86 84.7191C302.221 88.0458 306.957 91.8622 307.812 92.82C307.713 93.2246 307.367 94.1191 306.688 94.4604C306.026 94.7981 305.123 94.582 304.015 93.8224C303.673 93.582 303.2 93.6796 302.959 94.0218C302.719 94.3641 302.817 94.8378 303.159 95.0783C304.647 96.0886 305.81 96.2329 306.652 96.0594Z" fill="#DD4B9B"/>
<path d="M310.151 92.8134C311.572 92.5205 312.526 91.8298 313.001 90.7623C314.556 87.222 309.6 80.6521 307.576 78.1972L314.856 75.8182C315.248 75.6824 315.47 75.2524 315.335 74.8597C315.199 74.4669 314.769 74.2445 314.377 74.3804L306.017 77.11C305.779 77.1958 305.58 77.3832 305.522 77.633C305.464 77.8828 305.518 78.146 305.684 78.3313C308.552 81.5999 312.68 87.7002 311.596 90.1556C311.236 90.9799 310.209 91.4111 308.573 91.4558C308.155 91.4687 307.824 91.8115 307.837 92.2295C307.85 92.6476 308.193 92.9794 308.61 92.9664C309.176 92.9596 309.695 92.9074 310.151 92.8134Z" fill="#DD4B9B"/>
<path d="M236.361 447.575C236.554 447.535 236.732 447.425 236.84 447.238C237.077 446.878 236.965 446.426 236.623 446.185L205.744 425.972C205.384 425.735 204.932 425.846 204.692 426.188C204.455 426.548 204.567 427.001 204.909 427.241L235.791 447.473C235.961 447.584 236.168 447.614 236.361 447.575Z" fill="#DD4B9B"/>
<path d="M157.99 365.589C158.113 365.564 158.246 365.5 158.354 365.404C158.662 365.121 158.69 364.64 158.407 364.332L133.425 337.158C133.142 336.851 132.661 336.822 132.354 337.105C132.046 337.388 132.018 337.869 132.3 338.177L157.283 365.351C157.474 365.567 157.745 365.639 157.99 365.589Z" fill="#DD4B9B"/>
</g>
<defs>
<clipPath id="clip0_3_600">
<rect width="708" height="502" fill="white" transform="matrix(-1 0 0 1 708 0)"/>
</clipPath>
</defs>
</svg>
